<mxfile host="app.diagrams.net" modified="2023-08-23T03:50:40.867Z" agent="Mozilla/5.0 (Windows NT 10.0; Win64; x64) AppleWebKit/537.36 (KHTML, like Gecko) Chrome/116.0.0.0 Safari/537.36" etag="04BHbn-_Sa-pxvJBYPpc" version="21.6.2" type="device">
  <diagram name="P치gina-1" id="ZG2--MSWwExtLqT2tGWP">
    <mxGraphModel dx="2933" dy="1613" grid="1" gridSize="10" guides="1" tooltips="1" connect="1" arrows="1" fold="1" page="1" pageScale="1" pageWidth="1169" pageHeight="827" math="0" shadow="0">
      <root>
        <mxCell id="0" />
        <mxCell id="1" parent="0" />
        <mxCell id="_uMcou4ebboHlYU7uZX0-3" value="" style="edgeStyle=orthogonalEdgeStyle;rounded=0;orthogonalLoop=1;jettySize=auto;html=1;noEdgeStyle=1;orthogonal=1;" edge="1" parent="1" source="_uMcou4ebboHlYU7uZX0-1" target="_uMcou4ebboHlYU7uZX0-2">
          <mxGeometry relative="1" as="geometry">
            <Array as="points">
              <mxPoint x="132" y="414" />
              <mxPoint x="208" y="414" />
            </Array>
          </mxGeometry>
        </mxCell>
        <mxCell id="_uMcou4ebboHlYU7uZX0-1" value="INICIO" style="ellipse;whiteSpace=wrap;html=1;" vertex="1" parent="1">
          <mxGeometry x="30" y="369" width="90" height="90" as="geometry" />
        </mxCell>
        <mxCell id="_uMcou4ebboHlYU7uZX0-13" style="edgeStyle=orthogonalEdgeStyle;rounded=0;orthogonalLoop=1;jettySize=auto;html=1;noEdgeStyle=1;orthogonal=1;" edge="1" parent="1" source="_uMcou4ebboHlYU7uZX0-2" target="_uMcou4ebboHlYU7uZX0-5">
          <mxGeometry relative="1" as="geometry">
            <Array as="points">
              <mxPoint x="322" y="394" />
              <mxPoint x="398" y="354" />
            </Array>
          </mxGeometry>
        </mxCell>
        <mxCell id="_uMcou4ebboHlYU7uZX0-14" style="edgeStyle=orthogonalEdgeStyle;rounded=0;orthogonalLoop=1;jettySize=auto;html=1;noEdgeStyle=1;orthogonal=1;" edge="1" parent="1" source="_uMcou4ebboHlYU7uZX0-2" target="_uMcou4ebboHlYU7uZX0-4">
          <mxGeometry relative="1" as="geometry">
            <Array as="points">
              <mxPoint x="322" y="434" />
              <mxPoint x="398" y="474" />
            </Array>
          </mxGeometry>
        </mxCell>
        <mxCell id="_uMcou4ebboHlYU7uZX0-2" value="Entrevista con el ceo de Ruta12&lt;br&gt;1" style="ellipse;whiteSpace=wrap;html=1;fillColor=#f8cecc;strokeColor=#b85450;" vertex="1" parent="1">
          <mxGeometry x="220" y="369" width="90" height="90" as="geometry" />
        </mxCell>
        <mxCell id="_uMcou4ebboHlYU7uZX0-15" style="edgeStyle=orthogonalEdgeStyle;rounded=0;orthogonalLoop=1;jettySize=auto;html=1;noEdgeStyle=1;orthogonal=1;" edge="1" parent="1" source="_uMcou4ebboHlYU7uZX0-4" target="_uMcou4ebboHlYU7uZX0-8">
          <mxGeometry relative="1" as="geometry">
            <Array as="points">
              <mxPoint x="512" y="474" />
              <mxPoint x="588" y="434" />
            </Array>
          </mxGeometry>
        </mxCell>
        <mxCell id="_uMcou4ebboHlYU7uZX0-4" value="&lt;div&gt;Observaci칩n a la empresa&lt;/div&gt;&lt;div&gt;1&lt;/div&gt;" style="ellipse;whiteSpace=wrap;html=1;fillColor=#f8cecc;strokeColor=#b85450;" vertex="1" parent="1">
          <mxGeometry x="410" y="429" width="90" height="90" as="geometry" />
        </mxCell>
        <mxCell id="_uMcou4ebboHlYU7uZX0-9" style="edgeStyle=orthogonalEdgeStyle;rounded=0;orthogonalLoop=1;jettySize=auto;html=1;noEdgeStyle=1;orthogonal=1;" edge="1" parent="1" source="_uMcou4ebboHlYU7uZX0-5" target="_uMcou4ebboHlYU7uZX0-8">
          <mxGeometry relative="1" as="geometry">
            <Array as="points">
              <mxPoint x="512" y="354" />
              <mxPoint x="588" y="394" />
            </Array>
          </mxGeometry>
        </mxCell>
        <mxCell id="_uMcou4ebboHlYU7uZX0-5" value="&lt;div&gt;Encuesta a los operadores&lt;/div&gt;&lt;div&gt;1&lt;/div&gt;" style="ellipse;whiteSpace=wrap;html=1;fillColor=#f8cecc;strokeColor=#b85450;" vertex="1" parent="1">
          <mxGeometry x="410" y="309" width="90" height="90" as="geometry" />
        </mxCell>
        <mxCell id="_uMcou4ebboHlYU7uZX0-11" style="edgeStyle=orthogonalEdgeStyle;rounded=0;orthogonalLoop=1;jettySize=auto;html=1;noEdgeStyle=1;orthogonal=1;" edge="1" parent="1" source="_uMcou4ebboHlYU7uZX0-8" target="_uMcou4ebboHlYU7uZX0-10">
          <mxGeometry relative="1" as="geometry">
            <Array as="points">
              <mxPoint x="702" y="414" />
              <mxPoint x="778" y="414" />
            </Array>
          </mxGeometry>
        </mxCell>
        <mxCell id="_uMcou4ebboHlYU7uZX0-8" value="&lt;div&gt;Diagrama de caso de uso&lt;/div&gt;&lt;div&gt;1&lt;/div&gt;" style="ellipse;whiteSpace=wrap;html=1;fillColor=#f8cecc;strokeColor=#b85450;" vertex="1" parent="1">
          <mxGeometry x="600" y="369" width="90" height="90" as="geometry" />
        </mxCell>
        <mxCell id="_uMcou4ebboHlYU7uZX0-19" style="edgeStyle=orthogonalEdgeStyle;rounded=0;orthogonalLoop=1;jettySize=auto;html=1;noEdgeStyle=1;orthogonal=1;" edge="1" parent="1" source="_uMcou4ebboHlYU7uZX0-10" target="_uMcou4ebboHlYU7uZX0-16">
          <mxGeometry relative="1" as="geometry">
            <Array as="points">
              <mxPoint x="892" y="387.33333333333337" />
              <mxPoint x="968" y="294" />
            </Array>
          </mxGeometry>
        </mxCell>
        <mxCell id="_uMcou4ebboHlYU7uZX0-20" style="edgeStyle=orthogonalEdgeStyle;rounded=0;orthogonalLoop=1;jettySize=auto;html=1;noEdgeStyle=1;orthogonal=1;" edge="1" parent="1" source="_uMcou4ebboHlYU7uZX0-10" target="_uMcou4ebboHlYU7uZX0-17">
          <mxGeometry relative="1" as="geometry">
            <Array as="points">
              <mxPoint x="894" y="414" />
              <mxPoint x="968" y="414" />
            </Array>
          </mxGeometry>
        </mxCell>
        <mxCell id="_uMcou4ebboHlYU7uZX0-21" style="edgeStyle=orthogonalEdgeStyle;rounded=0;orthogonalLoop=1;jettySize=auto;html=1;noEdgeStyle=1;orthogonal=1;" edge="1" parent="1" source="_uMcou4ebboHlYU7uZX0-10" target="_uMcou4ebboHlYU7uZX0-18">
          <mxGeometry relative="1" as="geometry">
            <Array as="points">
              <mxPoint x="892" y="440.66666666666663" />
              <mxPoint x="968" y="534" />
            </Array>
          </mxGeometry>
        </mxCell>
        <mxCell id="_uMcou4ebboHlYU7uZX0-10" value="Descriptivo de caso de uso&lt;br&gt;2" style="ellipse;whiteSpace=wrap;html=1;fillColor=#f8cecc;strokeColor=#b85450;" vertex="1" parent="1">
          <mxGeometry x="790" y="369" width="90" height="90" as="geometry" />
        </mxCell>
        <mxCell id="_uMcou4ebboHlYU7uZX0-23" style="edgeStyle=orthogonalEdgeStyle;rounded=0;orthogonalLoop=1;jettySize=auto;html=1;noEdgeStyle=1;orthogonal=1;" edge="1" parent="1" source="_uMcou4ebboHlYU7uZX0-16" target="_uMcou4ebboHlYU7uZX0-22">
          <mxGeometry relative="1" as="geometry">
            <Array as="points">
              <mxPoint x="1082" y="294" />
              <mxPoint x="1158" y="387.33333333333337" />
            </Array>
          </mxGeometry>
        </mxCell>
        <mxCell id="_uMcou4ebboHlYU7uZX0-16" value="Diagrama de transici칩n de estados&lt;br&gt;1" style="ellipse;whiteSpace=wrap;html=1;fillColor=#f8cecc;strokeColor=#b85450;" vertex="1" parent="1">
          <mxGeometry x="980" y="249" width="90" height="90" as="geometry" />
        </mxCell>
        <mxCell id="_uMcou4ebboHlYU7uZX0-24" style="edgeStyle=orthogonalEdgeStyle;rounded=0;orthogonalLoop=1;jettySize=auto;html=1;noEdgeStyle=1;orthogonal=1;" edge="1" parent="1" source="_uMcou4ebboHlYU7uZX0-17" target="_uMcou4ebboHlYU7uZX0-22">
          <mxGeometry relative="1" as="geometry">
            <Array as="points">
              <mxPoint x="1082" y="414" />
              <mxPoint x="1156" y="414" />
            </Array>
          </mxGeometry>
        </mxCell>
        <mxCell id="_uMcou4ebboHlYU7uZX0-17" value="Diagrama de secuencia&lt;br&gt;1" style="ellipse;whiteSpace=wrap;html=1;fillColor=#f8cecc;strokeColor=#b85450;" vertex="1" parent="1">
          <mxGeometry x="980" y="369" width="90" height="90" as="geometry" />
        </mxCell>
        <mxCell id="_uMcou4ebboHlYU7uZX0-25" style="edgeStyle=orthogonalEdgeStyle;rounded=0;orthogonalLoop=1;jettySize=auto;html=1;noEdgeStyle=1;orthogonal=1;" edge="1" parent="1" source="_uMcou4ebboHlYU7uZX0-18" target="_uMcou4ebboHlYU7uZX0-22">
          <mxGeometry relative="1" as="geometry">
            <Array as="points">
              <mxPoint x="1082" y="534" />
              <mxPoint x="1158" y="440.66666666666663" />
            </Array>
          </mxGeometry>
        </mxCell>
        <mxCell id="_uMcou4ebboHlYU7uZX0-18" value="&lt;div&gt;Prototipado r치pido&lt;/div&gt;&lt;div&gt;1&lt;/div&gt;" style="ellipse;whiteSpace=wrap;html=1;fillColor=#f8cecc;strokeColor=#b85450;" vertex="1" parent="1">
          <mxGeometry x="980" y="489" width="90" height="90" as="geometry" />
        </mxCell>
        <mxCell id="_uMcou4ebboHlYU7uZX0-27" style="edgeStyle=orthogonalEdgeStyle;rounded=0;orthogonalLoop=1;jettySize=auto;html=1;noEdgeStyle=1;orthogonal=1;" edge="1" parent="1" source="_uMcou4ebboHlYU7uZX0-22" target="_uMcou4ebboHlYU7uZX0-26">
          <mxGeometry relative="1" as="geometry">
            <Array as="points">
              <mxPoint x="1272" y="414" />
              <mxPoint x="1348" y="414" />
            </Array>
          </mxGeometry>
        </mxCell>
        <mxCell id="_uMcou4ebboHlYU7uZX0-22" value="&lt;div&gt;Diagrama CPM&lt;/div&gt;&lt;div&gt;1&lt;/div&gt;" style="ellipse;whiteSpace=wrap;html=1;fillColor=#f8cecc;strokeColor=#b85450;" vertex="1" parent="1">
          <mxGeometry x="1170" y="369" width="90" height="90" as="geometry" />
        </mxCell>
        <mxCell id="_uMcou4ebboHlYU7uZX0-30" style="edgeStyle=orthogonalEdgeStyle;rounded=0;orthogonalLoop=1;jettySize=auto;html=1;noEdgeStyle=1;orthogonal=1;" edge="1" parent="1" source="_uMcou4ebboHlYU7uZX0-26" target="_uMcou4ebboHlYU7uZX0-28">
          <mxGeometry relative="1" as="geometry">
            <Array as="points">
              <mxPoint x="1462" y="394" />
              <mxPoint x="1538" y="354" />
            </Array>
          </mxGeometry>
        </mxCell>
        <mxCell id="_uMcou4ebboHlYU7uZX0-31" style="edgeStyle=orthogonalEdgeStyle;rounded=0;orthogonalLoop=1;jettySize=auto;html=1;noEdgeStyle=1;orthogonal=1;" edge="1" parent="1" source="_uMcou4ebboHlYU7uZX0-26" target="_uMcou4ebboHlYU7uZX0-29">
          <mxGeometry relative="1" as="geometry">
            <Array as="points">
              <mxPoint x="1462" y="434" />
              <mxPoint x="1538" y="474" />
            </Array>
          </mxGeometry>
        </mxCell>
        <mxCell id="_uMcou4ebboHlYU7uZX0-26" value="&lt;div&gt;Definir lenguaje y diagrama UML&lt;/div&gt;&lt;div&gt;1&lt;/div&gt;" style="ellipse;whiteSpace=wrap;html=1;fillColor=#f8cecc;strokeColor=#b85450;" vertex="1" parent="1">
          <mxGeometry x="1360" y="369" width="90" height="90" as="geometry" />
        </mxCell>
        <mxCell id="_uMcou4ebboHlYU7uZX0-33" style="edgeStyle=orthogonalEdgeStyle;rounded=0;orthogonalLoop=1;jettySize=auto;html=1;noEdgeStyle=1;orthogonal=1;" edge="1" parent="1" source="_uMcou4ebboHlYU7uZX0-28" target="_uMcou4ebboHlYU7uZX0-32">
          <mxGeometry relative="1" as="geometry">
            <Array as="points">
              <mxPoint x="1652" y="354" />
              <mxPoint x="1728" y="394" />
            </Array>
          </mxGeometry>
        </mxCell>
        <mxCell id="_uMcou4ebboHlYU7uZX0-28" value="&lt;div&gt;Desarrollo interfaz&amp;nbsp;&lt;/div&gt;&lt;div&gt;5&lt;/div&gt;" style="ellipse;whiteSpace=wrap;html=1;" vertex="1" parent="1">
          <mxGeometry x="1550" y="309" width="90" height="90" as="geometry" />
        </mxCell>
        <mxCell id="_uMcou4ebboHlYU7uZX0-34" style="edgeStyle=orthogonalEdgeStyle;rounded=0;orthogonalLoop=1;jettySize=auto;html=1;noEdgeStyle=1;orthogonal=1;" edge="1" parent="1" source="_uMcou4ebboHlYU7uZX0-29" target="_uMcou4ebboHlYU7uZX0-32">
          <mxGeometry relative="1" as="geometry">
            <Array as="points">
              <mxPoint x="1652" y="474" />
              <mxPoint x="1728" y="434" />
            </Array>
          </mxGeometry>
        </mxCell>
        <mxCell id="_uMcou4ebboHlYU7uZX0-29" value="&lt;div&gt;Desarrollo de funcionalidades&lt;/div&gt;&lt;div&gt;6&lt;/div&gt;" style="ellipse;whiteSpace=wrap;html=1;fillColor=#f8cecc;strokeColor=#b85450;" vertex="1" parent="1">
          <mxGeometry x="1550" y="429" width="90" height="90" as="geometry" />
        </mxCell>
        <mxCell id="_uMcou4ebboHlYU7uZX0-36" style="edgeStyle=orthogonalEdgeStyle;rounded=0;orthogonalLoop=1;jettySize=auto;html=1;noEdgeStyle=1;orthogonal=1;" edge="1" parent="1" source="_uMcou4ebboHlYU7uZX0-32" target="_uMcou4ebboHlYU7uZX0-35">
          <mxGeometry relative="1" as="geometry">
            <Array as="points">
              <mxPoint x="1842" y="414" />
              <mxPoint x="1918" y="414" />
            </Array>
          </mxGeometry>
        </mxCell>
        <mxCell id="_uMcou4ebboHlYU7uZX0-32" value="&lt;div&gt;Testeo del sistema&lt;/div&gt;&lt;div&gt;2&lt;/div&gt;" style="ellipse;whiteSpace=wrap;html=1;fillColor=#f8cecc;strokeColor=#b85450;" vertex="1" parent="1">
          <mxGeometry x="1740" y="369" width="90" height="90" as="geometry" />
        </mxCell>
        <mxCell id="_uMcou4ebboHlYU7uZX0-42" style="edgeStyle=orthogonalEdgeStyle;rounded=0;orthogonalLoop=1;jettySize=auto;html=1;noEdgeStyle=1;orthogonal=1;" edge="1" parent="1" source="_uMcou4ebboHlYU7uZX0-35" target="_uMcou4ebboHlYU7uZX0-38">
          <mxGeometry relative="1" as="geometry">
            <Array as="points">
              <mxPoint x="2032" y="414" />
              <mxPoint x="2108" y="414" />
            </Array>
          </mxGeometry>
        </mxCell>
        <mxCell id="_uMcou4ebboHlYU7uZX0-35" value="&lt;div&gt;Depuracion&lt;/div&gt;&lt;div&gt;2&lt;/div&gt;" style="ellipse;whiteSpace=wrap;html=1;fillColor=#f8cecc;strokeColor=#b85450;" vertex="1" parent="1">
          <mxGeometry x="1930" y="369" width="90" height="90" as="geometry" />
        </mxCell>
        <mxCell id="_uMcou4ebboHlYU7uZX0-40" value="" style="edgeStyle=orthogonalEdgeStyle;rounded=0;orthogonalLoop=1;jettySize=auto;html=1;noEdgeStyle=1;orthogonal=1;" edge="1" parent="1" source="_uMcou4ebboHlYU7uZX0-38" target="_uMcou4ebboHlYU7uZX0-39">
          <mxGeometry relative="1" as="geometry">
            <Array as="points">
              <mxPoint x="2222" y="414" />
              <mxPoint x="2298" y="414" />
            </Array>
          </mxGeometry>
        </mxCell>
        <mxCell id="_uMcou4ebboHlYU7uZX0-38" value="Implementar sistema&lt;br&gt;1" style="ellipse;whiteSpace=wrap;html=1;fillColor=#f8cecc;strokeColor=#b85450;" vertex="1" parent="1">
          <mxGeometry x="2120" y="369" width="90" height="90" as="geometry" />
        </mxCell>
        <mxCell id="_uMcou4ebboHlYU7uZX0-43" style="edgeStyle=orthogonalEdgeStyle;rounded=0;orthogonalLoop=1;jettySize=auto;html=1;noEdgeStyle=1;orthogonal=1;" edge="1" parent="1" source="_uMcou4ebboHlYU7uZX0-39" target="_uMcou4ebboHlYU7uZX0-41">
          <mxGeometry relative="1" as="geometry">
            <Array as="points">
              <mxPoint x="2412" y="414" />
              <mxPoint x="2488" y="414" />
            </Array>
          </mxGeometry>
        </mxCell>
        <mxCell id="_uMcou4ebboHlYU7uZX0-39" value="Entregar sistema&lt;br&gt;1" style="ellipse;whiteSpace=wrap;html=1;fillColor=#f8cecc;strokeColor=#b85450;" vertex="1" parent="1">
          <mxGeometry x="2310" y="369" width="90" height="90" as="geometry" />
        </mxCell>
        <mxCell id="_uMcou4ebboHlYU7uZX0-41" value="FIN" style="ellipse;whiteSpace=wrap;html=1;" vertex="1" parent="1">
          <mxGeometry x="2500" y="369" width="90" height="90" as="geometry" />
        </mxCell>
        <mxCell id="_uMcou4ebboHlYU7uZX0-45" value="" style="shape=table;startSize=0;container=1;collapsible=0;childLayout=tableLayout;swimlaneLine=1;strokeWidth=1;" vertex="1" parent="1">
          <mxGeometry x="27.5" y="290" width="95" height="60" as="geometry" />
        </mxCell>
        <mxCell id="_uMcou4ebboHlYU7uZX0-46" value="" style="shape=tableRow;horizontal=0;startSize=0;swimlaneHead=0;swimlaneBody=0;strokeColor=inherit;top=0;left=0;bottom=0;right=0;collapsible=0;dropTarget=0;fillColor=none;points=[[0,0.5],[1,0.5]];portConstraint=eastwest;" vertex="1" parent="_uMcou4ebboHlYU7uZX0-45">
          <mxGeometry width="95" height="30" as="geometry" />
        </mxCell>
        <mxCell id="_uMcou4ebboHlYU7uZX0-47" value="0" style="shape=partialRectangle;html=1;whiteSpace=wrap;connectable=0;strokeColor=inherit;overflow=hidden;fillColor=none;top=0;left=0;bottom=0;right=0;pointerEvents=1;" vertex="1" parent="_uMcou4ebboHlYU7uZX0-46">
          <mxGeometry width="48" height="30" as="geometry">
            <mxRectangle width="48" height="30" as="alternateBounds" />
          </mxGeometry>
        </mxCell>
        <mxCell id="_uMcou4ebboHlYU7uZX0-48" value="0" style="shape=partialRectangle;html=1;whiteSpace=wrap;connectable=0;strokeColor=inherit;overflow=hidden;fillColor=none;top=0;left=0;bottom=0;right=0;pointerEvents=1;" vertex="1" parent="_uMcou4ebboHlYU7uZX0-46">
          <mxGeometry x="48" width="47" height="30" as="geometry">
            <mxRectangle width="47" height="30" as="alternateBounds" />
          </mxGeometry>
        </mxCell>
        <mxCell id="_uMcou4ebboHlYU7uZX0-49" value="" style="shape=tableRow;horizontal=0;startSize=0;swimlaneHead=0;swimlaneBody=0;strokeColor=inherit;top=0;left=0;bottom=0;right=0;collapsible=0;dropTarget=0;fillColor=none;points=[[0,0.5],[1,0.5]];portConstraint=eastwest;" vertex="1" parent="_uMcou4ebboHlYU7uZX0-45">
          <mxGeometry y="30" width="95" height="30" as="geometry" />
        </mxCell>
        <mxCell id="_uMcou4ebboHlYU7uZX0-50" value="0" style="shape=partialRectangle;html=1;whiteSpace=wrap;connectable=0;strokeColor=inherit;overflow=hidden;fillColor=none;top=0;left=0;bottom=0;right=0;pointerEvents=1;" vertex="1" parent="_uMcou4ebboHlYU7uZX0-49">
          <mxGeometry width="48" height="30" as="geometry">
            <mxRectangle width="48" height="30" as="alternateBounds" />
          </mxGeometry>
        </mxCell>
        <mxCell id="_uMcou4ebboHlYU7uZX0-51" value="0" style="shape=partialRectangle;html=1;whiteSpace=wrap;connectable=0;strokeColor=inherit;overflow=hidden;fillColor=none;top=0;left=0;bottom=0;right=0;pointerEvents=1;" vertex="1" parent="_uMcou4ebboHlYU7uZX0-49">
          <mxGeometry x="48" width="47" height="30" as="geometry">
            <mxRectangle width="47" height="30" as="alternateBounds" />
          </mxGeometry>
        </mxCell>
        <mxCell id="_uMcou4ebboHlYU7uZX0-52" value="" style="shape=table;startSize=0;container=1;collapsible=0;childLayout=tableLayout;swimlaneLine=1;strokeWidth=1;" vertex="1" parent="1">
          <mxGeometry x="210" y="290" width="95" height="60" as="geometry" />
        </mxCell>
        <mxCell id="_uMcou4ebboHlYU7uZX0-53" value="" style="shape=tableRow;horizontal=0;startSize=0;swimlaneHead=0;swimlaneBody=0;strokeColor=inherit;top=0;left=0;bottom=0;right=0;collapsible=0;dropTarget=0;fillColor=none;points=[[0,0.5],[1,0.5]];portConstraint=eastwest;" vertex="1" parent="_uMcou4ebboHlYU7uZX0-52">
          <mxGeometry width="95" height="30" as="geometry" />
        </mxCell>
        <mxCell id="_uMcou4ebboHlYU7uZX0-54" value="0" style="shape=partialRectangle;html=1;whiteSpace=wrap;connectable=0;strokeColor=inherit;overflow=hidden;fillColor=none;top=0;left=0;bottom=0;right=0;pointerEvents=1;" vertex="1" parent="_uMcou4ebboHlYU7uZX0-53">
          <mxGeometry width="48" height="30" as="geometry">
            <mxRectangle width="48" height="30" as="alternateBounds" />
          </mxGeometry>
        </mxCell>
        <mxCell id="_uMcou4ebboHlYU7uZX0-55" value="1" style="shape=partialRectangle;html=1;whiteSpace=wrap;connectable=0;strokeColor=inherit;overflow=hidden;fillColor=none;top=0;left=0;bottom=0;right=0;pointerEvents=1;" vertex="1" parent="_uMcou4ebboHlYU7uZX0-53">
          <mxGeometry x="48" width="47" height="30" as="geometry">
            <mxRectangle width="47" height="30" as="alternateBounds" />
          </mxGeometry>
        </mxCell>
        <mxCell id="_uMcou4ebboHlYU7uZX0-56" value="" style="shape=tableRow;horizontal=0;startSize=0;swimlaneHead=0;swimlaneBody=0;strokeColor=inherit;top=0;left=0;bottom=0;right=0;collapsible=0;dropTarget=0;fillColor=none;points=[[0,0.5],[1,0.5]];portConstraint=eastwest;" vertex="1" parent="_uMcou4ebboHlYU7uZX0-52">
          <mxGeometry y="30" width="95" height="30" as="geometry" />
        </mxCell>
        <mxCell id="_uMcou4ebboHlYU7uZX0-57" value="0" style="shape=partialRectangle;html=1;whiteSpace=wrap;connectable=0;strokeColor=inherit;overflow=hidden;fillColor=none;top=0;left=0;bottom=0;right=0;pointerEvents=1;" vertex="1" parent="_uMcou4ebboHlYU7uZX0-56">
          <mxGeometry width="48" height="30" as="geometry">
            <mxRectangle width="48" height="30" as="alternateBounds" />
          </mxGeometry>
        </mxCell>
        <mxCell id="_uMcou4ebboHlYU7uZX0-58" value="1" style="shape=partialRectangle;html=1;whiteSpace=wrap;connectable=0;strokeColor=inherit;overflow=hidden;fillColor=none;top=0;left=0;bottom=0;right=0;pointerEvents=1;" vertex="1" parent="_uMcou4ebboHlYU7uZX0-56">
          <mxGeometry x="48" width="47" height="30" as="geometry">
            <mxRectangle width="47" height="30" as="alternateBounds" />
          </mxGeometry>
        </mxCell>
        <mxCell id="_uMcou4ebboHlYU7uZX0-59" value="" style="shape=table;startSize=0;container=1;collapsible=0;childLayout=tableLayout;swimlaneLine=1;strokeWidth=1;" vertex="1" parent="1">
          <mxGeometry x="400" y="240" width="95" height="60" as="geometry" />
        </mxCell>
        <mxCell id="_uMcou4ebboHlYU7uZX0-60" value="" style="shape=tableRow;horizontal=0;startSize=0;swimlaneHead=0;swimlaneBody=0;strokeColor=inherit;top=0;left=0;bottom=0;right=0;collapsible=0;dropTarget=0;fillColor=none;points=[[0,0.5],[1,0.5]];portConstraint=eastwest;" vertex="1" parent="_uMcou4ebboHlYU7uZX0-59">
          <mxGeometry width="95" height="30" as="geometry" />
        </mxCell>
        <mxCell id="_uMcou4ebboHlYU7uZX0-61" value="1" style="shape=partialRectangle;html=1;whiteSpace=wrap;connectable=0;strokeColor=inherit;overflow=hidden;fillColor=none;top=0;left=0;bottom=0;right=0;pointerEvents=1;" vertex="1" parent="_uMcou4ebboHlYU7uZX0-60">
          <mxGeometry width="48" height="30" as="geometry">
            <mxRectangle width="48" height="30" as="alternateBounds" />
          </mxGeometry>
        </mxCell>
        <mxCell id="_uMcou4ebboHlYU7uZX0-62" value="2" style="shape=partialRectangle;html=1;whiteSpace=wrap;connectable=0;strokeColor=inherit;overflow=hidden;fillColor=none;top=0;left=0;bottom=0;right=0;pointerEvents=1;" vertex="1" parent="_uMcou4ebboHlYU7uZX0-60">
          <mxGeometry x="48" width="47" height="30" as="geometry">
            <mxRectangle width="47" height="30" as="alternateBounds" />
          </mxGeometry>
        </mxCell>
        <mxCell id="_uMcou4ebboHlYU7uZX0-63" value="" style="shape=tableRow;horizontal=0;startSize=0;swimlaneHead=0;swimlaneBody=0;strokeColor=inherit;top=0;left=0;bottom=0;right=0;collapsible=0;dropTarget=0;fillColor=none;points=[[0,0.5],[1,0.5]];portConstraint=eastwest;" vertex="1" parent="_uMcou4ebboHlYU7uZX0-59">
          <mxGeometry y="30" width="95" height="30" as="geometry" />
        </mxCell>
        <mxCell id="_uMcou4ebboHlYU7uZX0-64" value="1" style="shape=partialRectangle;html=1;whiteSpace=wrap;connectable=0;strokeColor=inherit;overflow=hidden;fillColor=none;top=0;left=0;bottom=0;right=0;pointerEvents=1;" vertex="1" parent="_uMcou4ebboHlYU7uZX0-63">
          <mxGeometry width="48" height="30" as="geometry">
            <mxRectangle width="48" height="30" as="alternateBounds" />
          </mxGeometry>
        </mxCell>
        <mxCell id="_uMcou4ebboHlYU7uZX0-65" value="2" style="shape=partialRectangle;html=1;whiteSpace=wrap;connectable=0;strokeColor=inherit;overflow=hidden;fillColor=none;top=0;left=0;bottom=0;right=0;pointerEvents=1;" vertex="1" parent="_uMcou4ebboHlYU7uZX0-63">
          <mxGeometry x="48" width="47" height="30" as="geometry">
            <mxRectangle width="47" height="30" as="alternateBounds" />
          </mxGeometry>
        </mxCell>
        <mxCell id="_uMcou4ebboHlYU7uZX0-66" value="" style="shape=table;startSize=0;container=1;collapsible=0;childLayout=tableLayout;swimlaneLine=1;strokeWidth=1;" vertex="1" parent="1">
          <mxGeometry x="410" y="530" width="95" height="60" as="geometry" />
        </mxCell>
        <mxCell id="_uMcou4ebboHlYU7uZX0-67" value="" style="shape=tableRow;horizontal=0;startSize=0;swimlaneHead=0;swimlaneBody=0;strokeColor=inherit;top=0;left=0;bottom=0;right=0;collapsible=0;dropTarget=0;fillColor=none;points=[[0,0.5],[1,0.5]];portConstraint=eastwest;" vertex="1" parent="_uMcou4ebboHlYU7uZX0-66">
          <mxGeometry width="95" height="30" as="geometry" />
        </mxCell>
        <mxCell id="_uMcou4ebboHlYU7uZX0-68" value="1" style="shape=partialRectangle;html=1;whiteSpace=wrap;connectable=0;strokeColor=inherit;overflow=hidden;fillColor=none;top=0;left=0;bottom=0;right=0;pointerEvents=1;" vertex="1" parent="_uMcou4ebboHlYU7uZX0-67">
          <mxGeometry width="48" height="30" as="geometry">
            <mxRectangle width="48" height="30" as="alternateBounds" />
          </mxGeometry>
        </mxCell>
        <mxCell id="_uMcou4ebboHlYU7uZX0-69" value="2" style="shape=partialRectangle;html=1;whiteSpace=wrap;connectable=0;strokeColor=inherit;overflow=hidden;fillColor=none;top=0;left=0;bottom=0;right=0;pointerEvents=1;" vertex="1" parent="_uMcou4ebboHlYU7uZX0-67">
          <mxGeometry x="48" width="47" height="30" as="geometry">
            <mxRectangle width="47" height="30" as="alternateBounds" />
          </mxGeometry>
        </mxCell>
        <mxCell id="_uMcou4ebboHlYU7uZX0-70" value="" style="shape=tableRow;horizontal=0;startSize=0;swimlaneHead=0;swimlaneBody=0;strokeColor=inherit;top=0;left=0;bottom=0;right=0;collapsible=0;dropTarget=0;fillColor=none;points=[[0,0.5],[1,0.5]];portConstraint=eastwest;" vertex="1" parent="_uMcou4ebboHlYU7uZX0-66">
          <mxGeometry y="30" width="95" height="30" as="geometry" />
        </mxCell>
        <mxCell id="_uMcou4ebboHlYU7uZX0-71" value="1" style="shape=partialRectangle;html=1;whiteSpace=wrap;connectable=0;strokeColor=inherit;overflow=hidden;fillColor=none;top=0;left=0;bottom=0;right=0;pointerEvents=1;" vertex="1" parent="_uMcou4ebboHlYU7uZX0-70">
          <mxGeometry width="48" height="30" as="geometry">
            <mxRectangle width="48" height="30" as="alternateBounds" />
          </mxGeometry>
        </mxCell>
        <mxCell id="_uMcou4ebboHlYU7uZX0-72" value="2" style="shape=partialRectangle;html=1;whiteSpace=wrap;connectable=0;strokeColor=inherit;overflow=hidden;fillColor=none;top=0;left=0;bottom=0;right=0;pointerEvents=1;" vertex="1" parent="_uMcou4ebboHlYU7uZX0-70">
          <mxGeometry x="48" width="47" height="30" as="geometry">
            <mxRectangle width="47" height="30" as="alternateBounds" />
          </mxGeometry>
        </mxCell>
        <mxCell id="_uMcou4ebboHlYU7uZX0-79" value="" style="shape=table;startSize=0;container=1;collapsible=0;childLayout=tableLayout;swimlaneLine=1;strokeWidth=1;" vertex="1" parent="1">
          <mxGeometry x="590" y="290" width="95" height="60" as="geometry" />
        </mxCell>
        <mxCell id="_uMcou4ebboHlYU7uZX0-80" value="" style="shape=tableRow;horizontal=0;startSize=0;swimlaneHead=0;swimlaneBody=0;strokeColor=inherit;top=0;left=0;bottom=0;right=0;collapsible=0;dropTarget=0;fillColor=none;points=[[0,0.5],[1,0.5]];portConstraint=eastwest;" vertex="1" parent="_uMcou4ebboHlYU7uZX0-79">
          <mxGeometry width="95" height="30" as="geometry" />
        </mxCell>
        <mxCell id="_uMcou4ebboHlYU7uZX0-81" value="2" style="shape=partialRectangle;html=1;whiteSpace=wrap;connectable=0;strokeColor=inherit;overflow=hidden;fillColor=none;top=0;left=0;bottom=0;right=0;pointerEvents=1;" vertex="1" parent="_uMcou4ebboHlYU7uZX0-80">
          <mxGeometry width="48" height="30" as="geometry">
            <mxRectangle width="48" height="30" as="alternateBounds" />
          </mxGeometry>
        </mxCell>
        <mxCell id="_uMcou4ebboHlYU7uZX0-82" value="3" style="shape=partialRectangle;html=1;whiteSpace=wrap;connectable=0;strokeColor=inherit;overflow=hidden;fillColor=none;top=0;left=0;bottom=0;right=0;pointerEvents=1;" vertex="1" parent="_uMcou4ebboHlYU7uZX0-80">
          <mxGeometry x="48" width="47" height="30" as="geometry">
            <mxRectangle width="47" height="30" as="alternateBounds" />
          </mxGeometry>
        </mxCell>
        <mxCell id="_uMcou4ebboHlYU7uZX0-83" value="" style="shape=tableRow;horizontal=0;startSize=0;swimlaneHead=0;swimlaneBody=0;strokeColor=inherit;top=0;left=0;bottom=0;right=0;collapsible=0;dropTarget=0;fillColor=none;points=[[0,0.5],[1,0.5]];portConstraint=eastwest;" vertex="1" parent="_uMcou4ebboHlYU7uZX0-79">
          <mxGeometry y="30" width="95" height="30" as="geometry" />
        </mxCell>
        <mxCell id="_uMcou4ebboHlYU7uZX0-84" value="2" style="shape=partialRectangle;html=1;whiteSpace=wrap;connectable=0;strokeColor=inherit;overflow=hidden;fillColor=none;top=0;left=0;bottom=0;right=0;pointerEvents=1;" vertex="1" parent="_uMcou4ebboHlYU7uZX0-83">
          <mxGeometry width="48" height="30" as="geometry">
            <mxRectangle width="48" height="30" as="alternateBounds" />
          </mxGeometry>
        </mxCell>
        <mxCell id="_uMcou4ebboHlYU7uZX0-85" value="3" style="shape=partialRectangle;html=1;whiteSpace=wrap;connectable=0;strokeColor=inherit;overflow=hidden;fillColor=none;top=0;left=0;bottom=0;right=0;pointerEvents=1;" vertex="1" parent="_uMcou4ebboHlYU7uZX0-83">
          <mxGeometry x="48" width="47" height="30" as="geometry">
            <mxRectangle width="47" height="30" as="alternateBounds" />
          </mxGeometry>
        </mxCell>
        <mxCell id="_uMcou4ebboHlYU7uZX0-87" value="" style="shape=table;startSize=0;container=1;collapsible=0;childLayout=tableLayout;swimlaneLine=1;strokeWidth=1;" vertex="1" parent="1">
          <mxGeometry x="780" y="290" width="95" height="60" as="geometry" />
        </mxCell>
        <mxCell id="_uMcou4ebboHlYU7uZX0-88" value="" style="shape=tableRow;horizontal=0;startSize=0;swimlaneHead=0;swimlaneBody=0;strokeColor=inherit;top=0;left=0;bottom=0;right=0;collapsible=0;dropTarget=0;fillColor=none;points=[[0,0.5],[1,0.5]];portConstraint=eastwest;" vertex="1" parent="_uMcou4ebboHlYU7uZX0-87">
          <mxGeometry width="95" height="30" as="geometry" />
        </mxCell>
        <mxCell id="_uMcou4ebboHlYU7uZX0-89" value="3" style="shape=partialRectangle;html=1;whiteSpace=wrap;connectable=0;strokeColor=inherit;overflow=hidden;fillColor=none;top=0;left=0;bottom=0;right=0;pointerEvents=1;" vertex="1" parent="_uMcou4ebboHlYU7uZX0-88">
          <mxGeometry width="48" height="30" as="geometry">
            <mxRectangle width="48" height="30" as="alternateBounds" />
          </mxGeometry>
        </mxCell>
        <mxCell id="_uMcou4ebboHlYU7uZX0-90" value="5" style="shape=partialRectangle;html=1;whiteSpace=wrap;connectable=0;strokeColor=inherit;overflow=hidden;fillColor=none;top=0;left=0;bottom=0;right=0;pointerEvents=1;" vertex="1" parent="_uMcou4ebboHlYU7uZX0-88">
          <mxGeometry x="48" width="47" height="30" as="geometry">
            <mxRectangle width="47" height="30" as="alternateBounds" />
          </mxGeometry>
        </mxCell>
        <mxCell id="_uMcou4ebboHlYU7uZX0-91" value="" style="shape=tableRow;horizontal=0;startSize=0;swimlaneHead=0;swimlaneBody=0;strokeColor=inherit;top=0;left=0;bottom=0;right=0;collapsible=0;dropTarget=0;fillColor=none;points=[[0,0.5],[1,0.5]];portConstraint=eastwest;" vertex="1" parent="_uMcou4ebboHlYU7uZX0-87">
          <mxGeometry y="30" width="95" height="30" as="geometry" />
        </mxCell>
        <mxCell id="_uMcou4ebboHlYU7uZX0-92" value="3" style="shape=partialRectangle;html=1;whiteSpace=wrap;connectable=0;strokeColor=inherit;overflow=hidden;fillColor=none;top=0;left=0;bottom=0;right=0;pointerEvents=1;" vertex="1" parent="_uMcou4ebboHlYU7uZX0-91">
          <mxGeometry width="48" height="30" as="geometry">
            <mxRectangle width="48" height="30" as="alternateBounds" />
          </mxGeometry>
        </mxCell>
        <mxCell id="_uMcou4ebboHlYU7uZX0-93" value="5" style="shape=partialRectangle;html=1;whiteSpace=wrap;connectable=0;strokeColor=inherit;overflow=hidden;fillColor=none;top=0;left=0;bottom=0;right=0;pointerEvents=1;" vertex="1" parent="_uMcou4ebboHlYU7uZX0-91">
          <mxGeometry x="48" width="47" height="30" as="geometry">
            <mxRectangle width="47" height="30" as="alternateBounds" />
          </mxGeometry>
        </mxCell>
        <mxCell id="_uMcou4ebboHlYU7uZX0-94" value="" style="shape=table;startSize=0;container=1;collapsible=0;childLayout=tableLayout;swimlaneLine=1;strokeWidth=1;" vertex="1" parent="1">
          <mxGeometry x="980" y="180" width="95" height="60" as="geometry" />
        </mxCell>
        <mxCell id="_uMcou4ebboHlYU7uZX0-95" value="" style="shape=tableRow;horizontal=0;startSize=0;swimlaneHead=0;swimlaneBody=0;strokeColor=inherit;top=0;left=0;bottom=0;right=0;collapsible=0;dropTarget=0;fillColor=none;points=[[0,0.5],[1,0.5]];portConstraint=eastwest;" vertex="1" parent="_uMcou4ebboHlYU7uZX0-94">
          <mxGeometry width="95" height="30" as="geometry" />
        </mxCell>
        <mxCell id="_uMcou4ebboHlYU7uZX0-96" value="5" style="shape=partialRectangle;html=1;whiteSpace=wrap;connectable=0;strokeColor=inherit;overflow=hidden;fillColor=none;top=0;left=0;bottom=0;right=0;pointerEvents=1;" vertex="1" parent="_uMcou4ebboHlYU7uZX0-95">
          <mxGeometry width="48" height="30" as="geometry">
            <mxRectangle width="48" height="30" as="alternateBounds" />
          </mxGeometry>
        </mxCell>
        <mxCell id="_uMcou4ebboHlYU7uZX0-97" value="6" style="shape=partialRectangle;html=1;whiteSpace=wrap;connectable=0;strokeColor=inherit;overflow=hidden;fillColor=none;top=0;left=0;bottom=0;right=0;pointerEvents=1;" vertex="1" parent="_uMcou4ebboHlYU7uZX0-95">
          <mxGeometry x="48" width="47" height="30" as="geometry">
            <mxRectangle width="47" height="30" as="alternateBounds" />
          </mxGeometry>
        </mxCell>
        <mxCell id="_uMcou4ebboHlYU7uZX0-98" value="" style="shape=tableRow;horizontal=0;startSize=0;swimlaneHead=0;swimlaneBody=0;strokeColor=inherit;top=0;left=0;bottom=0;right=0;collapsible=0;dropTarget=0;fillColor=none;points=[[0,0.5],[1,0.5]];portConstraint=eastwest;" vertex="1" parent="_uMcou4ebboHlYU7uZX0-94">
          <mxGeometry y="30" width="95" height="30" as="geometry" />
        </mxCell>
        <mxCell id="_uMcou4ebboHlYU7uZX0-99" value="5" style="shape=partialRectangle;html=1;whiteSpace=wrap;connectable=0;strokeColor=inherit;overflow=hidden;fillColor=none;top=0;left=0;bottom=0;right=0;pointerEvents=1;" vertex="1" parent="_uMcou4ebboHlYU7uZX0-98">
          <mxGeometry width="48" height="30" as="geometry">
            <mxRectangle width="48" height="30" as="alternateBounds" />
          </mxGeometry>
        </mxCell>
        <mxCell id="_uMcou4ebboHlYU7uZX0-100" value="6" style="shape=partialRectangle;html=1;whiteSpace=wrap;connectable=0;strokeColor=inherit;overflow=hidden;fillColor=none;top=0;left=0;bottom=0;right=0;pointerEvents=1;" vertex="1" parent="_uMcou4ebboHlYU7uZX0-98">
          <mxGeometry x="48" width="47" height="30" as="geometry">
            <mxRectangle width="47" height="30" as="alternateBounds" />
          </mxGeometry>
        </mxCell>
        <mxCell id="_uMcou4ebboHlYU7uZX0-101" value="" style="shape=table;startSize=0;container=1;collapsible=0;childLayout=tableLayout;swimlaneLine=1;strokeWidth=1;" vertex="1" parent="1">
          <mxGeometry x="1060" y="350" width="50" height="30" as="geometry" />
        </mxCell>
        <mxCell id="_uMcou4ebboHlYU7uZX0-102" value="" style="shape=tableRow;horizontal=0;startSize=0;swimlaneHead=0;swimlaneBody=0;strokeColor=inherit;top=0;left=0;bottom=0;right=0;collapsible=0;dropTarget=0;fillColor=none;points=[[0,0.5],[1,0.5]];portConstraint=eastwest;" vertex="1" parent="_uMcou4ebboHlYU7uZX0-101">
          <mxGeometry width="50" height="15" as="geometry" />
        </mxCell>
        <mxCell id="_uMcou4ebboHlYU7uZX0-103" value="5" style="shape=partialRectangle;html=1;whiteSpace=wrap;connectable=0;strokeColor=inherit;overflow=hidden;fillColor=none;top=0;left=0;bottom=0;right=0;pointerEvents=1;" vertex="1" parent="_uMcou4ebboHlYU7uZX0-102">
          <mxGeometry width="25" height="15" as="geometry">
            <mxRectangle width="25" height="15" as="alternateBounds" />
          </mxGeometry>
        </mxCell>
        <mxCell id="_uMcou4ebboHlYU7uZX0-104" value="6" style="shape=partialRectangle;html=1;whiteSpace=wrap;connectable=0;strokeColor=inherit;overflow=hidden;fillColor=none;top=0;left=0;bottom=0;right=0;pointerEvents=1;" vertex="1" parent="_uMcou4ebboHlYU7uZX0-102">
          <mxGeometry x="25" width="25" height="15" as="geometry">
            <mxRectangle width="25" height="15" as="alternateBounds" />
          </mxGeometry>
        </mxCell>
        <mxCell id="_uMcou4ebboHlYU7uZX0-105" value="" style="shape=tableRow;horizontal=0;startSize=0;swimlaneHead=0;swimlaneBody=0;strokeColor=inherit;top=0;left=0;bottom=0;right=0;collapsible=0;dropTarget=0;fillColor=none;points=[[0,0.5],[1,0.5]];portConstraint=eastwest;" vertex="1" parent="_uMcou4ebboHlYU7uZX0-101">
          <mxGeometry y="15" width="50" height="15" as="geometry" />
        </mxCell>
        <mxCell id="_uMcou4ebboHlYU7uZX0-106" value="5" style="shape=partialRectangle;html=1;whiteSpace=wrap;connectable=0;strokeColor=inherit;overflow=hidden;fillColor=none;top=0;left=0;bottom=0;right=0;pointerEvents=1;" vertex="1" parent="_uMcou4ebboHlYU7uZX0-105">
          <mxGeometry width="25" height="15" as="geometry">
            <mxRectangle width="25" height="15" as="alternateBounds" />
          </mxGeometry>
        </mxCell>
        <mxCell id="_uMcou4ebboHlYU7uZX0-107" value="6" style="shape=partialRectangle;html=1;whiteSpace=wrap;connectable=0;strokeColor=inherit;overflow=hidden;fillColor=none;top=0;left=0;bottom=0;right=0;pointerEvents=1;" vertex="1" parent="_uMcou4ebboHlYU7uZX0-105">
          <mxGeometry x="25" width="25" height="15" as="geometry">
            <mxRectangle width="25" height="15" as="alternateBounds" />
          </mxGeometry>
        </mxCell>
        <mxCell id="_uMcou4ebboHlYU7uZX0-108" value="" style="shape=table;startSize=0;container=1;collapsible=0;childLayout=tableLayout;swimlaneLine=1;strokeWidth=1;" vertex="1" parent="1">
          <mxGeometry x="980" y="590" width="95" height="60" as="geometry" />
        </mxCell>
        <mxCell id="_uMcou4ebboHlYU7uZX0-109" value="" style="shape=tableRow;horizontal=0;startSize=0;swimlaneHead=0;swimlaneBody=0;strokeColor=inherit;top=0;left=0;bottom=0;right=0;collapsible=0;dropTarget=0;fillColor=none;points=[[0,0.5],[1,0.5]];portConstraint=eastwest;" vertex="1" parent="_uMcou4ebboHlYU7uZX0-108">
          <mxGeometry width="95" height="30" as="geometry" />
        </mxCell>
        <mxCell id="_uMcou4ebboHlYU7uZX0-110" value="5" style="shape=partialRectangle;html=1;whiteSpace=wrap;connectable=0;strokeColor=inherit;overflow=hidden;fillColor=none;top=0;left=0;bottom=0;right=0;pointerEvents=1;" vertex="1" parent="_uMcou4ebboHlYU7uZX0-109">
          <mxGeometry width="48" height="30" as="geometry">
            <mxRectangle width="48" height="30" as="alternateBounds" />
          </mxGeometry>
        </mxCell>
        <mxCell id="_uMcou4ebboHlYU7uZX0-111" value="6" style="shape=partialRectangle;html=1;whiteSpace=wrap;connectable=0;strokeColor=inherit;overflow=hidden;fillColor=none;top=0;left=0;bottom=0;right=0;pointerEvents=1;" vertex="1" parent="_uMcou4ebboHlYU7uZX0-109">
          <mxGeometry x="48" width="47" height="30" as="geometry">
            <mxRectangle width="47" height="30" as="alternateBounds" />
          </mxGeometry>
        </mxCell>
        <mxCell id="_uMcou4ebboHlYU7uZX0-112" value="" style="shape=tableRow;horizontal=0;startSize=0;swimlaneHead=0;swimlaneBody=0;strokeColor=inherit;top=0;left=0;bottom=0;right=0;collapsible=0;dropTarget=0;fillColor=none;points=[[0,0.5],[1,0.5]];portConstraint=eastwest;" vertex="1" parent="_uMcou4ebboHlYU7uZX0-108">
          <mxGeometry y="30" width="95" height="30" as="geometry" />
        </mxCell>
        <mxCell id="_uMcou4ebboHlYU7uZX0-113" value="5" style="shape=partialRectangle;html=1;whiteSpace=wrap;connectable=0;strokeColor=inherit;overflow=hidden;fillColor=none;top=0;left=0;bottom=0;right=0;pointerEvents=1;" vertex="1" parent="_uMcou4ebboHlYU7uZX0-112">
          <mxGeometry width="48" height="30" as="geometry">
            <mxRectangle width="48" height="30" as="alternateBounds" />
          </mxGeometry>
        </mxCell>
        <mxCell id="_uMcou4ebboHlYU7uZX0-114" value="6" style="shape=partialRectangle;html=1;whiteSpace=wrap;connectable=0;strokeColor=inherit;overflow=hidden;fillColor=none;top=0;left=0;bottom=0;right=0;pointerEvents=1;" vertex="1" parent="_uMcou4ebboHlYU7uZX0-112">
          <mxGeometry x="48" width="47" height="30" as="geometry">
            <mxRectangle width="47" height="30" as="alternateBounds" />
          </mxGeometry>
        </mxCell>
        <mxCell id="_uMcou4ebboHlYU7uZX0-115" value="" style="shape=table;startSize=0;container=1;collapsible=0;childLayout=tableLayout;swimlaneLine=1;strokeWidth=1;" vertex="1" parent="1">
          <mxGeometry x="1169" y="300" width="95" height="60" as="geometry" />
        </mxCell>
        <mxCell id="_uMcou4ebboHlYU7uZX0-116" value="" style="shape=tableRow;horizontal=0;startSize=0;swimlaneHead=0;swimlaneBody=0;strokeColor=inherit;top=0;left=0;bottom=0;right=0;collapsible=0;dropTarget=0;fillColor=none;points=[[0,0.5],[1,0.5]];portConstraint=eastwest;" vertex="1" parent="_uMcou4ebboHlYU7uZX0-115">
          <mxGeometry width="95" height="30" as="geometry" />
        </mxCell>
        <mxCell id="_uMcou4ebboHlYU7uZX0-117" value="6" style="shape=partialRectangle;html=1;whiteSpace=wrap;connectable=0;strokeColor=inherit;overflow=hidden;fillColor=none;top=0;left=0;bottom=0;right=0;pointerEvents=1;" vertex="1" parent="_uMcou4ebboHlYU7uZX0-116">
          <mxGeometry width="48" height="30" as="geometry">
            <mxRectangle width="48" height="30" as="alternateBounds" />
          </mxGeometry>
        </mxCell>
        <mxCell id="_uMcou4ebboHlYU7uZX0-118" value="7" style="shape=partialRectangle;html=1;whiteSpace=wrap;connectable=0;strokeColor=inherit;overflow=hidden;fillColor=none;top=0;left=0;bottom=0;right=0;pointerEvents=1;" vertex="1" parent="_uMcou4ebboHlYU7uZX0-116">
          <mxGeometry x="48" width="47" height="30" as="geometry">
            <mxRectangle width="47" height="30" as="alternateBounds" />
          </mxGeometry>
        </mxCell>
        <mxCell id="_uMcou4ebboHlYU7uZX0-119" value="" style="shape=tableRow;horizontal=0;startSize=0;swimlaneHead=0;swimlaneBody=0;strokeColor=inherit;top=0;left=0;bottom=0;right=0;collapsible=0;dropTarget=0;fillColor=none;points=[[0,0.5],[1,0.5]];portConstraint=eastwest;" vertex="1" parent="_uMcou4ebboHlYU7uZX0-115">
          <mxGeometry y="30" width="95" height="30" as="geometry" />
        </mxCell>
        <mxCell id="_uMcou4ebboHlYU7uZX0-120" value="6" style="shape=partialRectangle;html=1;whiteSpace=wrap;connectable=0;strokeColor=inherit;overflow=hidden;fillColor=none;top=0;left=0;bottom=0;right=0;pointerEvents=1;" vertex="1" parent="_uMcou4ebboHlYU7uZX0-119">
          <mxGeometry width="48" height="30" as="geometry">
            <mxRectangle width="48" height="30" as="alternateBounds" />
          </mxGeometry>
        </mxCell>
        <mxCell id="_uMcou4ebboHlYU7uZX0-121" value="7" style="shape=partialRectangle;html=1;whiteSpace=wrap;connectable=0;strokeColor=inherit;overflow=hidden;fillColor=none;top=0;left=0;bottom=0;right=0;pointerEvents=1;" vertex="1" parent="_uMcou4ebboHlYU7uZX0-119">
          <mxGeometry x="48" width="47" height="30" as="geometry">
            <mxRectangle width="47" height="30" as="alternateBounds" />
          </mxGeometry>
        </mxCell>
        <mxCell id="_uMcou4ebboHlYU7uZX0-122" value="" style="shape=table;startSize=0;container=1;collapsible=0;childLayout=tableLayout;swimlaneLine=1;strokeWidth=1;" vertex="1" parent="1">
          <mxGeometry x="1360" y="300" width="95" height="60" as="geometry" />
        </mxCell>
        <mxCell id="_uMcou4ebboHlYU7uZX0-123" value="" style="shape=tableRow;horizontal=0;startSize=0;swimlaneHead=0;swimlaneBody=0;strokeColor=inherit;top=0;left=0;bottom=0;right=0;collapsible=0;dropTarget=0;fillColor=none;points=[[0,0.5],[1,0.5]];portConstraint=eastwest;" vertex="1" parent="_uMcou4ebboHlYU7uZX0-122">
          <mxGeometry width="95" height="30" as="geometry" />
        </mxCell>
        <mxCell id="_uMcou4ebboHlYU7uZX0-124" value="7" style="shape=partialRectangle;html=1;whiteSpace=wrap;connectable=0;strokeColor=inherit;overflow=hidden;fillColor=none;top=0;left=0;bottom=0;right=0;pointerEvents=1;" vertex="1" parent="_uMcou4ebboHlYU7uZX0-123">
          <mxGeometry width="48" height="30" as="geometry">
            <mxRectangle width="48" height="30" as="alternateBounds" />
          </mxGeometry>
        </mxCell>
        <mxCell id="_uMcou4ebboHlYU7uZX0-125" value="8" style="shape=partialRectangle;html=1;whiteSpace=wrap;connectable=0;strokeColor=inherit;overflow=hidden;fillColor=none;top=0;left=0;bottom=0;right=0;pointerEvents=1;" vertex="1" parent="_uMcou4ebboHlYU7uZX0-123">
          <mxGeometry x="48" width="47" height="30" as="geometry">
            <mxRectangle width="47" height="30" as="alternateBounds" />
          </mxGeometry>
        </mxCell>
        <mxCell id="_uMcou4ebboHlYU7uZX0-126" value="" style="shape=tableRow;horizontal=0;startSize=0;swimlaneHead=0;swimlaneBody=0;strokeColor=inherit;top=0;left=0;bottom=0;right=0;collapsible=0;dropTarget=0;fillColor=none;points=[[0,0.5],[1,0.5]];portConstraint=eastwest;" vertex="1" parent="_uMcou4ebboHlYU7uZX0-122">
          <mxGeometry y="30" width="95" height="30" as="geometry" />
        </mxCell>
        <mxCell id="_uMcou4ebboHlYU7uZX0-127" value="7" style="shape=partialRectangle;html=1;whiteSpace=wrap;connectable=0;strokeColor=inherit;overflow=hidden;fillColor=none;top=0;left=0;bottom=0;right=0;pointerEvents=1;" vertex="1" parent="_uMcou4ebboHlYU7uZX0-126">
          <mxGeometry width="48" height="30" as="geometry">
            <mxRectangle width="48" height="30" as="alternateBounds" />
          </mxGeometry>
        </mxCell>
        <mxCell id="_uMcou4ebboHlYU7uZX0-128" value="8" style="shape=partialRectangle;html=1;whiteSpace=wrap;connectable=0;strokeColor=inherit;overflow=hidden;fillColor=none;top=0;left=0;bottom=0;right=0;pointerEvents=1;" vertex="1" parent="_uMcou4ebboHlYU7uZX0-126">
          <mxGeometry x="48" width="47" height="30" as="geometry">
            <mxRectangle width="47" height="30" as="alternateBounds" />
          </mxGeometry>
        </mxCell>
        <mxCell id="_uMcou4ebboHlYU7uZX0-129" value="" style="shape=table;startSize=0;container=1;collapsible=0;childLayout=tableLayout;swimlaneLine=1;strokeWidth=1;" vertex="1" parent="1">
          <mxGeometry x="1540" y="240" width="95" height="60" as="geometry" />
        </mxCell>
        <mxCell id="_uMcou4ebboHlYU7uZX0-130" value="" style="shape=tableRow;horizontal=0;startSize=0;swimlaneHead=0;swimlaneBody=0;strokeColor=inherit;top=0;left=0;bottom=0;right=0;collapsible=0;dropTarget=0;fillColor=none;points=[[0,0.5],[1,0.5]];portConstraint=eastwest;" vertex="1" parent="_uMcou4ebboHlYU7uZX0-129">
          <mxGeometry width="95" height="30" as="geometry" />
        </mxCell>
        <mxCell id="_uMcou4ebboHlYU7uZX0-131" value="8" style="shape=partialRectangle;html=1;whiteSpace=wrap;connectable=0;strokeColor=inherit;overflow=hidden;fillColor=none;top=0;left=0;bottom=0;right=0;pointerEvents=1;" vertex="1" parent="_uMcou4ebboHlYU7uZX0-130">
          <mxGeometry width="48" height="30" as="geometry">
            <mxRectangle width="48" height="30" as="alternateBounds" />
          </mxGeometry>
        </mxCell>
        <mxCell id="_uMcou4ebboHlYU7uZX0-132" value="13" style="shape=partialRectangle;html=1;whiteSpace=wrap;connectable=0;strokeColor=inherit;overflow=hidden;fillColor=none;top=0;left=0;bottom=0;right=0;pointerEvents=1;" vertex="1" parent="_uMcou4ebboHlYU7uZX0-130">
          <mxGeometry x="48" width="47" height="30" as="geometry">
            <mxRectangle width="47" height="30" as="alternateBounds" />
          </mxGeometry>
        </mxCell>
        <mxCell id="_uMcou4ebboHlYU7uZX0-133" value="" style="shape=tableRow;horizontal=0;startSize=0;swimlaneHead=0;swimlaneBody=0;strokeColor=inherit;top=0;left=0;bottom=0;right=0;collapsible=0;dropTarget=0;fillColor=none;points=[[0,0.5],[1,0.5]];portConstraint=eastwest;" vertex="1" parent="_uMcou4ebboHlYU7uZX0-129">
          <mxGeometry y="30" width="95" height="30" as="geometry" />
        </mxCell>
        <mxCell id="_uMcou4ebboHlYU7uZX0-134" value="9" style="shape=partialRectangle;html=1;whiteSpace=wrap;connectable=0;strokeColor=inherit;overflow=hidden;fillColor=none;top=0;left=0;bottom=0;right=0;pointerEvents=1;" vertex="1" parent="_uMcou4ebboHlYU7uZX0-133">
          <mxGeometry width="48" height="30" as="geometry">
            <mxRectangle width="48" height="30" as="alternateBounds" />
          </mxGeometry>
        </mxCell>
        <mxCell id="_uMcou4ebboHlYU7uZX0-135" value="14" style="shape=partialRectangle;html=1;whiteSpace=wrap;connectable=0;strokeColor=inherit;overflow=hidden;fillColor=none;top=0;left=0;bottom=0;right=0;pointerEvents=1;" vertex="1" parent="_uMcou4ebboHlYU7uZX0-133">
          <mxGeometry x="48" width="47" height="30" as="geometry">
            <mxRectangle width="47" height="30" as="alternateBounds" />
          </mxGeometry>
        </mxCell>
        <mxCell id="_uMcou4ebboHlYU7uZX0-137" value="" style="shape=table;startSize=0;container=1;collapsible=0;childLayout=tableLayout;swimlaneLine=1;strokeWidth=1;" vertex="1" parent="1">
          <mxGeometry x="1547.5" y="530" width="95" height="60" as="geometry" />
        </mxCell>
        <mxCell id="_uMcou4ebboHlYU7uZX0-138" value="" style="shape=tableRow;horizontal=0;startSize=0;swimlaneHead=0;swimlaneBody=0;strokeColor=inherit;top=0;left=0;bottom=0;right=0;collapsible=0;dropTarget=0;fillColor=none;points=[[0,0.5],[1,0.5]];portConstraint=eastwest;" vertex="1" parent="_uMcou4ebboHlYU7uZX0-137">
          <mxGeometry width="95" height="30" as="geometry" />
        </mxCell>
        <mxCell id="_uMcou4ebboHlYU7uZX0-139" value="8" style="shape=partialRectangle;html=1;whiteSpace=wrap;connectable=0;strokeColor=inherit;overflow=hidden;fillColor=none;top=0;left=0;bottom=0;right=0;pointerEvents=1;" vertex="1" parent="_uMcou4ebboHlYU7uZX0-138">
          <mxGeometry width="48" height="30" as="geometry">
            <mxRectangle width="48" height="30" as="alternateBounds" />
          </mxGeometry>
        </mxCell>
        <mxCell id="_uMcou4ebboHlYU7uZX0-140" value="14" style="shape=partialRectangle;html=1;whiteSpace=wrap;connectable=0;strokeColor=inherit;overflow=hidden;fillColor=none;top=0;left=0;bottom=0;right=0;pointerEvents=1;" vertex="1" parent="_uMcou4ebboHlYU7uZX0-138">
          <mxGeometry x="48" width="47" height="30" as="geometry">
            <mxRectangle width="47" height="30" as="alternateBounds" />
          </mxGeometry>
        </mxCell>
        <mxCell id="_uMcou4ebboHlYU7uZX0-141" value="" style="shape=tableRow;horizontal=0;startSize=0;swimlaneHead=0;swimlaneBody=0;strokeColor=inherit;top=0;left=0;bottom=0;right=0;collapsible=0;dropTarget=0;fillColor=none;points=[[0,0.5],[1,0.5]];portConstraint=eastwest;" vertex="1" parent="_uMcou4ebboHlYU7uZX0-137">
          <mxGeometry y="30" width="95" height="30" as="geometry" />
        </mxCell>
        <mxCell id="_uMcou4ebboHlYU7uZX0-142" value="8" style="shape=partialRectangle;html=1;whiteSpace=wrap;connectable=0;strokeColor=inherit;overflow=hidden;fillColor=none;top=0;left=0;bottom=0;right=0;pointerEvents=1;" vertex="1" parent="_uMcou4ebboHlYU7uZX0-141">
          <mxGeometry width="48" height="30" as="geometry">
            <mxRectangle width="48" height="30" as="alternateBounds" />
          </mxGeometry>
        </mxCell>
        <mxCell id="_uMcou4ebboHlYU7uZX0-143" value="14" style="shape=partialRectangle;html=1;whiteSpace=wrap;connectable=0;strokeColor=inherit;overflow=hidden;fillColor=none;top=0;left=0;bottom=0;right=0;pointerEvents=1;" vertex="1" parent="_uMcou4ebboHlYU7uZX0-141">
          <mxGeometry x="48" width="47" height="30" as="geometry">
            <mxRectangle width="47" height="30" as="alternateBounds" />
          </mxGeometry>
        </mxCell>
        <mxCell id="_uMcou4ebboHlYU7uZX0-144" value="" style="shape=table;startSize=0;container=1;collapsible=0;childLayout=tableLayout;swimlaneLine=1;strokeWidth=1;" vertex="1" parent="1">
          <mxGeometry x="1730" y="300" width="95" height="60" as="geometry" />
        </mxCell>
        <mxCell id="_uMcou4ebboHlYU7uZX0-145" value="" style="shape=tableRow;horizontal=0;startSize=0;swimlaneHead=0;swimlaneBody=0;strokeColor=inherit;top=0;left=0;bottom=0;right=0;collapsible=0;dropTarget=0;fillColor=none;points=[[0,0.5],[1,0.5]];portConstraint=eastwest;" vertex="1" parent="_uMcou4ebboHlYU7uZX0-144">
          <mxGeometry width="95" height="30" as="geometry" />
        </mxCell>
        <mxCell id="_uMcou4ebboHlYU7uZX0-146" value="14" style="shape=partialRectangle;html=1;whiteSpace=wrap;connectable=0;strokeColor=inherit;overflow=hidden;fillColor=none;top=0;left=0;bottom=0;right=0;pointerEvents=1;" vertex="1" parent="_uMcou4ebboHlYU7uZX0-145">
          <mxGeometry width="48" height="30" as="geometry">
            <mxRectangle width="48" height="30" as="alternateBounds" />
          </mxGeometry>
        </mxCell>
        <mxCell id="_uMcou4ebboHlYU7uZX0-147" value="16" style="shape=partialRectangle;html=1;whiteSpace=wrap;connectable=0;strokeColor=inherit;overflow=hidden;fillColor=none;top=0;left=0;bottom=0;right=0;pointerEvents=1;" vertex="1" parent="_uMcou4ebboHlYU7uZX0-145">
          <mxGeometry x="48" width="47" height="30" as="geometry">
            <mxRectangle width="47" height="30" as="alternateBounds" />
          </mxGeometry>
        </mxCell>
        <mxCell id="_uMcou4ebboHlYU7uZX0-148" value="" style="shape=tableRow;horizontal=0;startSize=0;swimlaneHead=0;swimlaneBody=0;strokeColor=inherit;top=0;left=0;bottom=0;right=0;collapsible=0;dropTarget=0;fillColor=none;points=[[0,0.5],[1,0.5]];portConstraint=eastwest;" vertex="1" parent="_uMcou4ebboHlYU7uZX0-144">
          <mxGeometry y="30" width="95" height="30" as="geometry" />
        </mxCell>
        <mxCell id="_uMcou4ebboHlYU7uZX0-149" value="14" style="shape=partialRectangle;html=1;whiteSpace=wrap;connectable=0;strokeColor=inherit;overflow=hidden;fillColor=none;top=0;left=0;bottom=0;right=0;pointerEvents=1;" vertex="1" parent="_uMcou4ebboHlYU7uZX0-148">
          <mxGeometry width="48" height="30" as="geometry">
            <mxRectangle width="48" height="30" as="alternateBounds" />
          </mxGeometry>
        </mxCell>
        <mxCell id="_uMcou4ebboHlYU7uZX0-150" value="16" style="shape=partialRectangle;html=1;whiteSpace=wrap;connectable=0;strokeColor=inherit;overflow=hidden;fillColor=none;top=0;left=0;bottom=0;right=0;pointerEvents=1;" vertex="1" parent="_uMcou4ebboHlYU7uZX0-148">
          <mxGeometry x="48" width="47" height="30" as="geometry">
            <mxRectangle width="47" height="30" as="alternateBounds" />
          </mxGeometry>
        </mxCell>
        <mxCell id="_uMcou4ebboHlYU7uZX0-151" value="" style="shape=table;startSize=0;container=1;collapsible=0;childLayout=tableLayout;swimlaneLine=1;strokeWidth=1;" vertex="1" parent="1">
          <mxGeometry x="1920" y="290" width="95" height="60" as="geometry" />
        </mxCell>
        <mxCell id="_uMcou4ebboHlYU7uZX0-152" value="" style="shape=tableRow;horizontal=0;startSize=0;swimlaneHead=0;swimlaneBody=0;strokeColor=inherit;top=0;left=0;bottom=0;right=0;collapsible=0;dropTarget=0;fillColor=none;points=[[0,0.5],[1,0.5]];portConstraint=eastwest;" vertex="1" parent="_uMcou4ebboHlYU7uZX0-151">
          <mxGeometry width="95" height="30" as="geometry" />
        </mxCell>
        <mxCell id="_uMcou4ebboHlYU7uZX0-153" value="16" style="shape=partialRectangle;html=1;whiteSpace=wrap;connectable=0;strokeColor=inherit;overflow=hidden;fillColor=none;top=0;left=0;bottom=0;right=0;pointerEvents=1;" vertex="1" parent="_uMcou4ebboHlYU7uZX0-152">
          <mxGeometry width="48" height="30" as="geometry">
            <mxRectangle width="48" height="30" as="alternateBounds" />
          </mxGeometry>
        </mxCell>
        <mxCell id="_uMcou4ebboHlYU7uZX0-154" value="18" style="shape=partialRectangle;html=1;whiteSpace=wrap;connectable=0;strokeColor=inherit;overflow=hidden;fillColor=none;top=0;left=0;bottom=0;right=0;pointerEvents=1;" vertex="1" parent="_uMcou4ebboHlYU7uZX0-152">
          <mxGeometry x="48" width="47" height="30" as="geometry">
            <mxRectangle width="47" height="30" as="alternateBounds" />
          </mxGeometry>
        </mxCell>
        <mxCell id="_uMcou4ebboHlYU7uZX0-155" value="" style="shape=tableRow;horizontal=0;startSize=0;swimlaneHead=0;swimlaneBody=0;strokeColor=inherit;top=0;left=0;bottom=0;right=0;collapsible=0;dropTarget=0;fillColor=none;points=[[0,0.5],[1,0.5]];portConstraint=eastwest;" vertex="1" parent="_uMcou4ebboHlYU7uZX0-151">
          <mxGeometry y="30" width="95" height="30" as="geometry" />
        </mxCell>
        <mxCell id="_uMcou4ebboHlYU7uZX0-156" value="16" style="shape=partialRectangle;html=1;whiteSpace=wrap;connectable=0;strokeColor=inherit;overflow=hidden;fillColor=none;top=0;left=0;bottom=0;right=0;pointerEvents=1;" vertex="1" parent="_uMcou4ebboHlYU7uZX0-155">
          <mxGeometry width="48" height="30" as="geometry">
            <mxRectangle width="48" height="30" as="alternateBounds" />
          </mxGeometry>
        </mxCell>
        <mxCell id="_uMcou4ebboHlYU7uZX0-157" value="18" style="shape=partialRectangle;html=1;whiteSpace=wrap;connectable=0;strokeColor=inherit;overflow=hidden;fillColor=none;top=0;left=0;bottom=0;right=0;pointerEvents=1;" vertex="1" parent="_uMcou4ebboHlYU7uZX0-155">
          <mxGeometry x="48" width="47" height="30" as="geometry">
            <mxRectangle width="47" height="30" as="alternateBounds" />
          </mxGeometry>
        </mxCell>
        <mxCell id="_uMcou4ebboHlYU7uZX0-158" value="" style="shape=table;startSize=0;container=1;collapsible=0;childLayout=tableLayout;swimlaneLine=1;strokeWidth=1;" vertex="1" parent="1">
          <mxGeometry x="2110" y="290" width="95" height="60" as="geometry" />
        </mxCell>
        <mxCell id="_uMcou4ebboHlYU7uZX0-159" value="" style="shape=tableRow;horizontal=0;startSize=0;swimlaneHead=0;swimlaneBody=0;strokeColor=inherit;top=0;left=0;bottom=0;right=0;collapsible=0;dropTarget=0;fillColor=none;points=[[0,0.5],[1,0.5]];portConstraint=eastwest;" vertex="1" parent="_uMcou4ebboHlYU7uZX0-158">
          <mxGeometry width="95" height="30" as="geometry" />
        </mxCell>
        <mxCell id="_uMcou4ebboHlYU7uZX0-160" value="18" style="shape=partialRectangle;html=1;whiteSpace=wrap;connectable=0;strokeColor=inherit;overflow=hidden;fillColor=none;top=0;left=0;bottom=0;right=0;pointerEvents=1;" vertex="1" parent="_uMcou4ebboHlYU7uZX0-159">
          <mxGeometry width="48" height="30" as="geometry">
            <mxRectangle width="48" height="30" as="alternateBounds" />
          </mxGeometry>
        </mxCell>
        <mxCell id="_uMcou4ebboHlYU7uZX0-161" value="19" style="shape=partialRectangle;html=1;whiteSpace=wrap;connectable=0;strokeColor=inherit;overflow=hidden;fillColor=none;top=0;left=0;bottom=0;right=0;pointerEvents=1;" vertex="1" parent="_uMcou4ebboHlYU7uZX0-159">
          <mxGeometry x="48" width="47" height="30" as="geometry">
            <mxRectangle width="47" height="30" as="alternateBounds" />
          </mxGeometry>
        </mxCell>
        <mxCell id="_uMcou4ebboHlYU7uZX0-162" value="" style="shape=tableRow;horizontal=0;startSize=0;swimlaneHead=0;swimlaneBody=0;strokeColor=inherit;top=0;left=0;bottom=0;right=0;collapsible=0;dropTarget=0;fillColor=none;points=[[0,0.5],[1,0.5]];portConstraint=eastwest;" vertex="1" parent="_uMcou4ebboHlYU7uZX0-158">
          <mxGeometry y="30" width="95" height="30" as="geometry" />
        </mxCell>
        <mxCell id="_uMcou4ebboHlYU7uZX0-163" value="18" style="shape=partialRectangle;html=1;whiteSpace=wrap;connectable=0;strokeColor=inherit;overflow=hidden;fillColor=none;top=0;left=0;bottom=0;right=0;pointerEvents=1;" vertex="1" parent="_uMcou4ebboHlYU7uZX0-162">
          <mxGeometry width="48" height="30" as="geometry">
            <mxRectangle width="48" height="30" as="alternateBounds" />
          </mxGeometry>
        </mxCell>
        <mxCell id="_uMcou4ebboHlYU7uZX0-164" value="19" style="shape=partialRectangle;html=1;whiteSpace=wrap;connectable=0;strokeColor=inherit;overflow=hidden;fillColor=none;top=0;left=0;bottom=0;right=0;pointerEvents=1;" vertex="1" parent="_uMcou4ebboHlYU7uZX0-162">
          <mxGeometry x="48" width="47" height="30" as="geometry">
            <mxRectangle width="47" height="30" as="alternateBounds" />
          </mxGeometry>
        </mxCell>
        <mxCell id="_uMcou4ebboHlYU7uZX0-165" value="" style="shape=table;startSize=0;container=1;collapsible=0;childLayout=tableLayout;swimlaneLine=1;strokeWidth=1;" vertex="1" parent="1">
          <mxGeometry x="2310" y="290" width="95" height="60" as="geometry" />
        </mxCell>
        <mxCell id="_uMcou4ebboHlYU7uZX0-166" value="" style="shape=tableRow;horizontal=0;startSize=0;swimlaneHead=0;swimlaneBody=0;strokeColor=inherit;top=0;left=0;bottom=0;right=0;collapsible=0;dropTarget=0;fillColor=none;points=[[0,0.5],[1,0.5]];portConstraint=eastwest;" vertex="1" parent="_uMcou4ebboHlYU7uZX0-165">
          <mxGeometry width="95" height="30" as="geometry" />
        </mxCell>
        <mxCell id="_uMcou4ebboHlYU7uZX0-167" value="19" style="shape=partialRectangle;html=1;whiteSpace=wrap;connectable=0;strokeColor=inherit;overflow=hidden;fillColor=none;top=0;left=0;bottom=0;right=0;pointerEvents=1;" vertex="1" parent="_uMcou4ebboHlYU7uZX0-166">
          <mxGeometry width="48" height="30" as="geometry">
            <mxRectangle width="48" height="30" as="alternateBounds" />
          </mxGeometry>
        </mxCell>
        <mxCell id="_uMcou4ebboHlYU7uZX0-168" value="20" style="shape=partialRectangle;html=1;whiteSpace=wrap;connectable=0;strokeColor=inherit;overflow=hidden;fillColor=none;top=0;left=0;bottom=0;right=0;pointerEvents=1;" vertex="1" parent="_uMcou4ebboHlYU7uZX0-166">
          <mxGeometry x="48" width="47" height="30" as="geometry">
            <mxRectangle width="47" height="30" as="alternateBounds" />
          </mxGeometry>
        </mxCell>
        <mxCell id="_uMcou4ebboHlYU7uZX0-169" value="" style="shape=tableRow;horizontal=0;startSize=0;swimlaneHead=0;swimlaneBody=0;strokeColor=inherit;top=0;left=0;bottom=0;right=0;collapsible=0;dropTarget=0;fillColor=none;points=[[0,0.5],[1,0.5]];portConstraint=eastwest;" vertex="1" parent="_uMcou4ebboHlYU7uZX0-165">
          <mxGeometry y="30" width="95" height="30" as="geometry" />
        </mxCell>
        <mxCell id="_uMcou4ebboHlYU7uZX0-170" value="19" style="shape=partialRectangle;html=1;whiteSpace=wrap;connectable=0;strokeColor=inherit;overflow=hidden;fillColor=none;top=0;left=0;bottom=0;right=0;pointerEvents=1;" vertex="1" parent="_uMcou4ebboHlYU7uZX0-169">
          <mxGeometry width="48" height="30" as="geometry">
            <mxRectangle width="48" height="30" as="alternateBounds" />
          </mxGeometry>
        </mxCell>
        <mxCell id="_uMcou4ebboHlYU7uZX0-171" value="20" style="shape=partialRectangle;html=1;whiteSpace=wrap;connectable=0;strokeColor=inherit;overflow=hidden;fillColor=none;top=0;left=0;bottom=0;right=0;pointerEvents=1;" vertex="1" parent="_uMcou4ebboHlYU7uZX0-169">
          <mxGeometry x="48" width="47" height="30" as="geometry">
            <mxRectangle width="47" height="30" as="alternateBounds" />
          </mxGeometry>
        </mxCell>
        <mxCell id="_uMcou4ebboHlYU7uZX0-172" value="" style="shape=table;startSize=0;container=1;collapsible=0;childLayout=tableLayout;swimlaneLine=1;strokeWidth=1;" vertex="1" parent="1">
          <mxGeometry x="2500" y="290" width="95" height="60" as="geometry" />
        </mxCell>
        <mxCell id="_uMcou4ebboHlYU7uZX0-173" value="" style="shape=tableRow;horizontal=0;startSize=0;swimlaneHead=0;swimlaneBody=0;strokeColor=inherit;top=0;left=0;bottom=0;right=0;collapsible=0;dropTarget=0;fillColor=none;points=[[0,0.5],[1,0.5]];portConstraint=eastwest;" vertex="1" parent="_uMcou4ebboHlYU7uZX0-172">
          <mxGeometry width="95" height="30" as="geometry" />
        </mxCell>
        <mxCell id="_uMcou4ebboHlYU7uZX0-174" value="20" style="shape=partialRectangle;html=1;whiteSpace=wrap;connectable=0;strokeColor=inherit;overflow=hidden;fillColor=none;top=0;left=0;bottom=0;right=0;pointerEvents=1;" vertex="1" parent="_uMcou4ebboHlYU7uZX0-173">
          <mxGeometry width="48" height="30" as="geometry">
            <mxRectangle width="48" height="30" as="alternateBounds" />
          </mxGeometry>
        </mxCell>
        <mxCell id="_uMcou4ebboHlYU7uZX0-175" value="20" style="shape=partialRectangle;html=1;whiteSpace=wrap;connectable=0;strokeColor=inherit;overflow=hidden;fillColor=none;top=0;left=0;bottom=0;right=0;pointerEvents=1;" vertex="1" parent="_uMcou4ebboHlYU7uZX0-173">
          <mxGeometry x="48" width="47" height="30" as="geometry">
            <mxRectangle width="47" height="30" as="alternateBounds" />
          </mxGeometry>
        </mxCell>
        <mxCell id="_uMcou4ebboHlYU7uZX0-176" value="" style="shape=tableRow;horizontal=0;startSize=0;swimlaneHead=0;swimlaneBody=0;strokeColor=inherit;top=0;left=0;bottom=0;right=0;collapsible=0;dropTarget=0;fillColor=none;points=[[0,0.5],[1,0.5]];portConstraint=eastwest;" vertex="1" parent="_uMcou4ebboHlYU7uZX0-172">
          <mxGeometry y="30" width="95" height="30" as="geometry" />
        </mxCell>
        <mxCell id="_uMcou4ebboHlYU7uZX0-177" value="20" style="shape=partialRectangle;html=1;whiteSpace=wrap;connectable=0;strokeColor=inherit;overflow=hidden;fillColor=none;top=0;left=0;bottom=0;right=0;pointerEvents=1;" vertex="1" parent="_uMcou4ebboHlYU7uZX0-176">
          <mxGeometry width="48" height="30" as="geometry">
            <mxRectangle width="48" height="30" as="alternateBounds" />
          </mxGeometry>
        </mxCell>
        <mxCell id="_uMcou4ebboHlYU7uZX0-178" value="20" style="shape=partialRectangle;html=1;whiteSpace=wrap;connectable=0;strokeColor=inherit;overflow=hidden;fillColor=none;top=0;left=0;bottom=0;right=0;pointerEvents=1;" vertex="1" parent="_uMcou4ebboHlYU7uZX0-176">
          <mxGeometry x="48" width="47" height="30" as="geometry">
            <mxRectangle width="47" height="30" as="alternateBounds" />
          </mxGeometry>
        </mxCell>
        <mxCell id="_uMcou4ebboHlYU7uZX0-179" value="H = 0" style="text;html=1;strokeColor=none;fillColor=none;align=center;verticalAlign=middle;whiteSpace=wrap;rounded=0;" vertex="1" parent="1">
          <mxGeometry x="210" y="230" width="60" height="30" as="geometry" />
        </mxCell>
        <mxCell id="_uMcou4ebboHlYU7uZX0-180" value="H = 0" style="text;html=1;strokeColor=none;fillColor=none;align=center;verticalAlign=middle;whiteSpace=wrap;rounded=0;" vertex="1" parent="1">
          <mxGeometry x="417.5" y="190" width="60" height="30" as="geometry" />
        </mxCell>
        <mxCell id="_uMcou4ebboHlYU7uZX0-181" value="H = 0" style="text;html=1;strokeColor=none;fillColor=none;align=center;verticalAlign=middle;whiteSpace=wrap;rounded=0;" vertex="1" parent="1">
          <mxGeometry x="425" y="605" width="60" height="30" as="geometry" />
        </mxCell>
        <mxCell id="_uMcou4ebboHlYU7uZX0-182" value="H = 0" style="text;html=1;strokeColor=none;fillColor=none;align=center;verticalAlign=middle;whiteSpace=wrap;rounded=0;" vertex="1" parent="1">
          <mxGeometry x="607.5" y="249" width="60" height="30" as="geometry" />
        </mxCell>
        <mxCell id="_uMcou4ebboHlYU7uZX0-183" value="H = 0" style="text;html=1;strokeColor=none;fillColor=none;align=center;verticalAlign=middle;whiteSpace=wrap;rounded=0;" vertex="1" parent="1">
          <mxGeometry x="797.5" y="249" width="60" height="30" as="geometry" />
        </mxCell>
        <mxCell id="_uMcou4ebboHlYU7uZX0-184" value="H = 0" style="text;html=1;strokeColor=none;fillColor=none;align=center;verticalAlign=middle;whiteSpace=wrap;rounded=0;" vertex="1" parent="1">
          <mxGeometry x="995" y="140" width="60" height="30" as="geometry" />
        </mxCell>
        <mxCell id="_uMcou4ebboHlYU7uZX0-185" value="H = 0" style="text;html=1;strokeColor=none;fillColor=none;align=center;verticalAlign=middle;whiteSpace=wrap;rounded=0;" vertex="1" parent="1">
          <mxGeometry x="1186.5" y="260" width="60" height="30" as="geometry" />
        </mxCell>
        <mxCell id="_uMcou4ebboHlYU7uZX0-186" value="H = 0" style="text;html=1;strokeColor=none;fillColor=none;align=center;verticalAlign=middle;whiteSpace=wrap;rounded=0;" vertex="1" parent="1">
          <mxGeometry x="1060" y="320" width="60" height="30" as="geometry" />
        </mxCell>
        <mxCell id="_uMcou4ebboHlYU7uZX0-187" value="H = 0" style="text;html=1;strokeColor=none;fillColor=none;align=center;verticalAlign=middle;whiteSpace=wrap;rounded=0;" vertex="1" parent="1">
          <mxGeometry x="1090" y="605" width="60" height="30" as="geometry" />
        </mxCell>
        <mxCell id="_uMcou4ebboHlYU7uZX0-188" value="H = 0" style="text;html=1;strokeColor=none;fillColor=none;align=center;verticalAlign=middle;whiteSpace=wrap;rounded=0;" vertex="1" parent="1">
          <mxGeometry x="1377.5" y="260" width="60" height="30" as="geometry" />
        </mxCell>
        <mxCell id="_uMcou4ebboHlYU7uZX0-189" value="H = 0" style="text;html=1;strokeColor=none;fillColor=none;align=center;verticalAlign=middle;whiteSpace=wrap;rounded=0;" vertex="1" parent="1">
          <mxGeometry x="1747.5" y="260" width="60" height="30" as="geometry" />
        </mxCell>
        <mxCell id="_uMcou4ebboHlYU7uZX0-190" value="H = 1" style="text;html=1;strokeColor=none;fillColor=none;align=center;verticalAlign=middle;whiteSpace=wrap;rounded=0;" vertex="1" parent="1">
          <mxGeometry x="1557.5" y="200" width="60" height="30" as="geometry" />
        </mxCell>
        <mxCell id="_uMcou4ebboHlYU7uZX0-191" value="H = 0" style="text;html=1;strokeColor=none;fillColor=none;align=center;verticalAlign=middle;whiteSpace=wrap;rounded=0;" vertex="1" parent="1">
          <mxGeometry x="1565" y="605" width="60" height="30" as="geometry" />
        </mxCell>
        <mxCell id="_uMcou4ebboHlYU7uZX0-192" value="H = 0" style="text;html=1;strokeColor=none;fillColor=none;align=center;verticalAlign=middle;whiteSpace=wrap;rounded=0;" vertex="1" parent="1">
          <mxGeometry x="1937.5" y="249" width="60" height="30" as="geometry" />
        </mxCell>
        <mxCell id="_uMcou4ebboHlYU7uZX0-193" value="H = 0" style="text;html=1;strokeColor=none;fillColor=none;align=center;verticalAlign=middle;whiteSpace=wrap;rounded=0;" vertex="1" parent="1">
          <mxGeometry x="2127.5" y="249" width="60" height="30" as="geometry" />
        </mxCell>
        <mxCell id="_uMcou4ebboHlYU7uZX0-194" value="H = 0" style="text;html=1;strokeColor=none;fillColor=none;align=center;verticalAlign=middle;whiteSpace=wrap;rounded=0;" vertex="1" parent="1">
          <mxGeometry x="2327.5" y="249" width="60" height="30" as="geometry" />
        </mxCell>
      </root>
    </mxGraphModel>
  </diagram>
</mxfile>
